<?xml version="1.0" encoding="UTF-8"?>
<svg xmlns="http://www.w3.org/2000/svg" xmlns:xlink="http://www.w3.org/1999/xlink" width="90px" height="90px" viewBox="0 0 90 90" version="1.1">
<g id="surface1">
<path style=" stroke:none;fill-rule:evenodd;fill:rgb(100%,41.960785%,0%);fill-opacity:1;" d="M 76.761719 89.027344 C 55.5625 90.265625 34.394531 90.265625 13.195312 89.027344 C 6.898438 88.632812 1.324219 83.058594 0.929688 76.761719 C -0.308594 55.5625 -0.308594 34.394531 0.929688 13.195312 C 1.324219 6.898438 6.898438 1.324219 13.195312 0.929688 C 34.394531 -0.308594 55.5625 -0.308594 76.761719 0.929688 C 83.058594 1.324219 88.632812 6.898438 89.027344 13.195312 C 90.265625 34.394531 90.265625 55.5625 89.027344 76.761719 C 88.632812 83.058594 83.058594 88.632812 76.761719 89.027344 Z M 76.761719 89.027344 "/>
<path style=" stroke:none;fill-rule:nonzero;fill:rgb(100%,100%,100%);fill-opacity:1;" d="M 26.371094 23.675781 C 26.371094 23.675781 26.097656 23.734375 25.976562 23.644531 C 25.792969 23.460938 25.613281 23.339844 25.398438 23.191406 C 25.066406 22.976562 24.671875 22.886719 24.21875 22.886719 C 23.886719 22.886719 23.582031 22.949219 23.28125 23.097656 C 22.976562 23.25 22.734375 23.402344 22.523438 23.644531 C 22.3125 23.886719 22.128906 24.128906 22.007812 24.429688 C 21.886719 24.734375 21.828125 25.035156 21.828125 25.371094 C 21.828125 25.703125 21.886719 26.007812 22.007812 26.308594 C 22.128906 26.613281 22.3125 26.855469 22.523438 27.097656 C 22.734375 27.308594 23.007812 27.488281 23.28125 27.640625 C 23.582031 27.761719 23.886719 27.851562 24.21875 27.851562 C 24.550781 27.851562 24.886719 27.792969 25.1875 27.671875 C 25.492188 27.550781 25.761719 27.339844 25.945312 27.066406 C 26.035156 26.945312 26.125 26.761719 26.125 26.703125 C 26.097656 26.582031 25.945312 26.582031 25.792969 26.582031 L 24.308594 26.582031 C 24.308594 26.582031 24.160156 26.582031 24.097656 26.492188 C 24.039062 26.429688 24.007812 26.371094 24.007812 26.277344 L 24.007812 25.066406 C 24.007812 25.066406 24.007812 24.914062 24.097656 24.855469 C 24.160156 24.792969 24.21875 24.765625 24.308594 24.765625 L 28.699219 24.765625 C 28.699219 24.765625 28.851562 24.765625 28.941406 24.855469 C 29.035156 24.945312 29.035156 24.976562 29.0625 25.097656 C 29.0625 25.25 29.0625 25.277344 29.0625 25.492188 C 29.0625 26.371094 28.882812 27.308594 28.578125 27.824219 C 28.277344 28.335938 27.945312 28.792969 27.519531 29.15625 C 27.097656 29.519531 26.582031 29.820312 26.003906 30.035156 C 25.429688 30.246094 24.855469 30.367188 24.21875 30.367188 C 23.523438 30.367188 22.886719 30.246094 22.28125 29.972656 C 21.675781 29.699219 21.128906 29.367188 20.675781 28.914062 C 20.222656 28.460938 19.859375 27.945312 19.585938 27.339844 C 19.3125 26.734375 19.191406 26.097656 19.191406 25.429688 C 19.191406 24.765625 19.3125 24.128906 19.585938 23.523438 C 19.859375 22.917969 20.222656 22.402344 20.675781 21.949219 C 21.128906 21.492188 21.675781 21.160156 22.28125 20.886719 C 22.886719 20.617188 23.554688 20.496094 24.21875 20.496094 C 25.1875 20.496094 26.003906 20.675781 26.703125 21.070312 C 27.21875 21.371094 27.671875 21.734375 28.066406 22.191406 C 28.1875 22.339844 28.15625 22.554688 28.003906 22.644531 L 26.371094 23.734375 Z M 26.371094 23.675781 "/>
<path style=" stroke:none;fill-rule:nonzero;fill:rgb(100%,100%,100%);fill-opacity:1;" d="M 33.394531 30.09375 L 31.457031 30.09375 C 31.457031 30.09375 31.304688 30.09375 31.246094 30.003906 C 31.183594 29.914062 31.152344 29.882812 31.152344 29.792969 L 31.152344 20.886719 C 31.152344 20.886719 31.152344 20.738281 31.246094 20.675781 C 31.304688 20.617188 31.367188 20.585938 31.457031 20.585938 L 35.515625 20.585938 C 36.03125 20.585938 36.484375 20.675781 36.90625 20.828125 C 37.332031 20.980469 37.695312 21.222656 37.996094 21.523438 C 38.300781 21.828125 38.542969 22.191406 38.695312 22.613281 C 38.875 23.039062 38.9375 23.492188 38.9375 24.007812 C 38.9375 24.28125 38.90625 24.550781 38.847656 24.824219 C 38.785156 25.097656 38.695312 25.371094 38.574219 25.613281 C 38.453125 25.855469 38.300781 26.066406 38.148438 26.277344 C 37.996094 26.492188 37.785156 26.640625 37.605469 26.761719 C 37.542969 26.824219 37.484375 26.882812 37.453125 26.945312 C 37.421875 27.003906 37.453125 27.097656 37.511719 27.15625 C 37.847656 27.582031 38.179688 28.035156 38.542969 28.488281 C 38.90625 28.945312 39.238281 29.367188 39.511719 29.761719 C 39.574219 29.820312 39.574219 29.914062 39.542969 30.003906 C 39.511719 30.09375 39.453125 30.125 39.359375 30.125 L 36.9375 30.125 C 36.9375 30.125 36.757812 30.125 36.664062 30.0625 C 36.574219 30.003906 36.484375 29.972656 36.421875 29.882812 C 36.152344 29.519531 35.878906 29.15625 35.605469 28.761719 C 35.332031 28.398438 35.058594 28.003906 34.789062 27.640625 C 34.726562 27.582031 34.667969 27.519531 34.574219 27.460938 C 34.484375 27.398438 34.394531 27.398438 34.304688 27.398438 L 34.03125 27.398438 C 34.03125 27.398438 33.878906 27.429688 33.820312 27.488281 C 33.757812 27.550781 33.726562 27.609375 33.726562 27.703125 L 33.726562 29.820312 C 33.726562 29.820312 33.699219 29.972656 33.636719 30.035156 C 33.578125 30.09375 33.515625 30.125 33.425781 30.125 Z M 34.03125 24.976562 L 35.394531 24.976562 C 35.394531 24.976562 35.605469 24.976562 35.726562 24.914062 C 35.847656 24.886719 35.9375 24.824219 36.03125 24.734375 C 36.121094 24.644531 36.210938 24.550781 36.273438 24.429688 C 36.332031 24.308594 36.363281 24.160156 36.363281 24.007812 C 36.363281 23.917969 36.363281 23.824219 36.332031 23.703125 C 36.332031 23.582031 36.242188 23.460938 36.179688 23.371094 C 36.121094 23.25 36 23.160156 35.878906 23.097656 C 35.757812 23.039062 35.605469 22.976562 35.425781 22.976562 L 34.0625 22.976562 C 34.0625 22.976562 33.910156 23.007812 33.847656 23.070312 C 33.789062 23.128906 33.757812 23.191406 33.757812 23.28125 L 33.757812 24.671875 C 33.757812 24.671875 33.757812 24.824219 33.847656 24.886719 C 33.941406 24.945312 33.96875 24.976562 34.0625 24.976562 Z M 34.03125 24.976562 "/>
<path style=" stroke:none;fill-rule:nonzero;fill:rgb(100%,100%,100%);fill-opacity:1;" d="M 40.996094 20.886719 C 40.996094 20.886719 40.996094 20.738281 41.085938 20.675781 C 41.148438 20.617188 41.207031 20.585938 41.296875 20.585938 L 43.265625 20.585938 C 43.265625 20.585938 43.417969 20.617188 43.480469 20.675781 C 43.539062 20.738281 43.570312 20.796875 43.570312 20.886719 L 43.570312 26.15625 C 43.570312 26.492188 43.628906 26.761719 43.722656 27.003906 C 43.8125 27.246094 43.964844 27.398438 44.113281 27.519531 C 44.265625 27.640625 44.449219 27.730469 44.628906 27.792969 C 44.8125 27.851562 44.992188 27.882812 45.113281 27.882812 C 45.234375 27.882812 45.417969 27.882812 45.597656 27.792969 C 45.78125 27.730469 45.960938 27.640625 46.113281 27.519531 C 46.265625 27.398438 46.417969 27.21875 46.507812 27.003906 C 46.628906 26.792969 46.660156 26.492188 46.660156 26.15625 L 46.660156 20.886719 C 46.660156 20.886719 46.660156 20.738281 46.75 20.675781 C 46.808594 20.617188 46.871094 20.585938 46.960938 20.585938 L 48.929688 20.585938 C 48.929688 20.585938 49.082031 20.617188 49.140625 20.675781 C 49.203125 20.738281 49.234375 20.796875 49.234375 20.886719 L 49.234375 26.15625 C 49.234375 26.761719 49.140625 27.339844 48.929688 27.824219 C 48.75 28.339844 48.445312 28.761719 48.082031 29.125 C 47.71875 29.488281 47.296875 29.761719 46.78125 29.941406 C 46.265625 30.125 45.691406 30.246094 45.085938 30.246094 C 44.480469 30.246094 43.902344 30.15625 43.386719 29.941406 C 42.875 29.730469 42.449219 29.457031 42.085938 29.125 C 41.722656 28.761719 41.449219 28.339844 41.238281 27.824219 C 41.027344 27.308594 40.933594 26.761719 40.933594 26.15625 L 40.933594 20.886719 Z M 40.996094 20.886719 "/>
<path style=" stroke:none;fill-rule:nonzero;fill:rgb(100%,100%,100%);fill-opacity:1;" d="M 55.378906 27.519531 L 54.261719 27.519531 C 54.261719 27.519531 54.109375 27.550781 54.046875 27.609375 C 53.988281 27.671875 53.957031 27.730469 53.957031 27.824219 L 53.957031 29.761719 C 53.957031 29.761719 53.957031 29.914062 53.867188 29.972656 C 53.804688 30.035156 53.746094 30.0625 53.65625 30.0625 L 51.6875 30.0625 C 51.6875 30.0625 51.535156 30.0625 51.472656 29.972656 C 51.414062 29.914062 51.382812 29.851562 51.382812 29.761719 L 51.382812 20.859375 C 51.382812 20.859375 51.382812 20.707031 51.472656 20.644531 C 51.566406 20.585938 51.59375 20.554688 51.6875 20.554688 L 55.652344 20.554688 C 56.136719 20.554688 56.59375 20.644531 57.015625 20.828125 C 57.441406 21.007812 57.804688 21.25 58.136719 21.585938 C 58.4375 21.917969 58.710938 22.28125 58.894531 22.707031 C 59.074219 23.128906 59.167969 23.582031 59.167969 24.066406 C 59.167969 24.550781 59.074219 25.007812 58.921875 25.429688 C 58.773438 25.855469 58.53125 26.21875 58.226562 26.519531 C 57.925781 26.824219 57.5 27.066406 57.046875 27.246094 C 56.5625 27.429688 56.015625 27.519531 55.378906 27.519531 Z M 55.472656 22.949219 L 54.230469 22.949219 C 54.230469 22.949219 54.078125 22.976562 54.019531 23.039062 C 53.957031 23.097656 53.925781 23.160156 53.925781 23.25 L 53.925781 24.765625 C 53.925781 24.765625 53.957031 24.914062 54.019531 24.976562 C 54.078125 25.035156 54.140625 25.066406 54.230469 25.066406 L 55.621094 25.066406 C 55.957031 25.066406 56.199219 24.976562 56.351562 24.765625 C 56.5 24.550781 56.59375 24.308594 56.59375 24.039062 C 56.59375 23.886719 56.59375 23.765625 56.53125 23.644531 C 56.472656 23.523438 56.410156 23.402344 56.320312 23.28125 C 56.230469 23.191406 56.109375 23.097656 55.957031 23.039062 C 55.804688 22.976562 55.652344 22.949219 55.472656 22.949219 Z M 55.472656 22.949219 "/>
<path style=" stroke:none;fill-rule:nonzero;fill:rgb(100%,100%,100%);fill-opacity:1;" d="M 60.921875 25.339844 C 60.921875 24.671875 61.042969 24.039062 61.316406 23.433594 C 61.589844 22.828125 61.921875 22.3125 62.375 21.855469 C 62.832031 21.402344 63.34375 21.070312 63.949219 20.796875 C 64.554688 20.523438 65.191406 20.402344 65.859375 20.402344 C 66.523438 20.402344 67.160156 20.523438 67.765625 20.796875 C 68.371094 21.070312 68.886719 21.402344 69.339844 21.855469 C 69.796875 22.3125 70.128906 22.828125 70.402344 23.433594 C 70.671875 24.039062 70.792969 24.671875 70.792969 25.339844 C 70.792969 26.007812 70.671875 26.640625 70.402344 27.246094 C 70.128906 27.851562 69.796875 28.367188 69.339844 28.824219 C 68.886719 29.277344 68.371094 29.609375 67.765625 29.882812 C 67.160156 30.15625 66.523438 30.277344 65.859375 30.277344 C 65.191406 30.277344 64.554688 30.15625 63.949219 29.882812 C 63.34375 29.609375 62.832031 29.277344 62.375 28.824219 C 61.921875 28.367188 61.589844 27.851562 61.316406 27.246094 C 61.042969 26.640625 60.921875 26.007812 60.921875 25.339844 Z M 63.496094 25.339844 C 63.496094 25.671875 63.558594 25.976562 63.679688 26.277344 C 63.800781 26.582031 63.980469 26.824219 64.191406 27.066406 C 64.40625 27.277344 64.648438 27.460938 64.949219 27.609375 C 65.222656 27.730469 65.527344 27.824219 65.859375 27.824219 C 66.191406 27.824219 66.496094 27.761719 66.765625 27.609375 C 67.039062 27.488281 67.3125 27.308594 67.523438 27.066406 C 67.734375 26.855469 67.917969 26.582031 68.039062 26.277344 C 68.160156 25.976562 68.222656 25.671875 68.222656 25.339844 C 68.222656 25.007812 68.160156 24.703125 68.039062 24.402344 C 67.917969 24.097656 67.734375 23.855469 67.523438 23.613281 C 67.3125 23.402344 67.070312 23.21875 66.765625 23.070312 C 66.464844 22.917969 66.191406 22.855469 65.859375 22.855469 C 65.527344 22.855469 65.222656 22.917969 64.949219 23.070312 C 64.675781 23.21875 64.40625 23.371094 64.191406 23.613281 C 63.980469 23.824219 63.800781 24.097656 63.679688 24.402344 C 63.558594 24.703125 63.496094 25.007812 63.496094 25.339844 Z M 63.496094 25.339844 "/>
<path style=" stroke:none;fill-rule:nonzero;fill:rgb(100%,100%,100%);fill-opacity:1;" d="M 76.789062 59.621094 C 77.425781 59.863281 77.640625 60.621094 77.277344 61.195312 C 76.609375 62.195312 75.851562 63.101562 75.09375 63.949219 C 74.035156 65.101562 72.855469 66.101562 71.523438 66.917969 C 70.21875 67.734375 68.734375 68.371094 67.128906 68.828125 C 65.527344 69.28125 63.769531 69.492188 61.832031 69.492188 C 59.410156 69.492188 57.136719 69.039062 55.015625 68.128906 C 52.898438 67.222656 51.050781 66.011719 49.476562 64.464844 C 47.902344 62.921875 46.628906 61.105469 45.71875 59.015625 C 44.8125 56.925781 44.359375 54.714844 44.359375 52.351562 C 44.359375 49.988281 44.8125 47.78125 45.71875 45.691406 C 46.628906 43.601562 47.871094 41.785156 49.476562 40.238281 C 51.050781 38.695312 52.925781 37.484375 55.015625 36.574219 C 57.136719 35.664062 59.410156 35.210938 61.832031 35.210938 C 63.828125 35.210938 65.617188 35.421875 67.222656 35.878906 C 68.828125 36.332031 70.28125 36.96875 71.582031 37.785156 C 72.882812 38.601562 74.066406 39.601562 75.09375 40.753906 C 75.851562 41.601562 76.578125 42.511719 77.246094 43.480469 C 77.640625 44.023438 77.398438 44.8125 76.761719 45.054688 L 70.613281 47.476562 C 69.945312 47.75 69.21875 47.507812 68.796875 46.960938 C 68.070312 46.023438 67.25 45.296875 66.3125 44.722656 C 65.070312 43.992188 63.585938 43.601562 61.832031 43.601562 C 60.679688 43.601562 59.589844 43.84375 58.589844 44.328125 C 57.589844 44.8125 56.683594 45.449219 55.925781 46.265625 C 55.167969 47.082031 54.59375 47.992188 54.167969 49.050781 C 53.746094 50.109375 53.535156 51.203125 53.535156 52.320312 C 53.535156 53.441406 53.746094 54.5625 54.167969 55.621094 C 54.59375 56.683594 55.167969 57.589844 55.925781 58.378906 C 56.683594 59.164062 57.5625 59.800781 58.589844 60.285156 C 59.589844 60.769531 60.679688 61.011719 61.832031 61.011719 C 63.496094 61.011719 65.011719 60.621094 66.34375 59.800781 C 67.34375 59.195312 68.191406 58.46875 68.886719 57.589844 C 69.3125 57.046875 70.066406 56.894531 70.703125 57.136719 L 76.789062 59.558594 Z M 76.789062 59.621094 "/>
<path style=" stroke:none;fill-rule:nonzero;fill:rgb(100%,100%,100%);fill-opacity:1;" d="M 38.484375 44.355469 L 32.214844 44.355469 C 31.878906 44.355469 31.546875 44.476562 31.335938 44.722656 C 31.125 44.933594 31.03125 45.175781 31.03125 45.476562 L 31.03125 68.371094 C 31.03125 68.675781 30.941406 68.949219 30.730469 69.160156 C 30.519531 69.371094 30.246094 69.492188 29.914062 69.492188 L 22.433594 69.492188 C 22.097656 69.492188 21.765625 69.371094 21.554688 69.128906 C 21.34375 68.917969 21.25 68.675781 21.25 68.371094 L 21.25 45.476562 C 21.25 45.175781 21.160156 44.902344 20.949219 44.691406 C 20.738281 44.476562 20.464844 44.355469 20.128906 44.355469 L 13.863281 44.355469 C 13.527344 44.355469 13.195312 44.234375 12.984375 43.992188 C 12.773438 43.78125 12.679688 43.539062 12.679688 43.238281 L 12.679688 36.394531 C 12.679688 36.058594 12.800781 35.726562 13.042969 35.515625 C 13.257812 35.300781 13.5 35.210938 13.800781 35.210938 L 38.511719 35.210938 C 38.847656 35.210938 39.117188 35.332031 39.332031 35.542969 C 39.542969 35.757812 39.632812 36.03125 39.632812 36.332031 L 39.632812 43.207031 C 39.632812 43.507812 39.542969 43.78125 39.332031 43.992188 C 39.117188 44.207031 38.847656 44.328125 38.511719 44.328125 Z M 38.484375 44.355469 "/>
<path style=" stroke:none;fill-rule:nonzero;fill:rgb(100%,100%,100%);fill-opacity:1;" d="M 44.113281 66.464844 C 44.417969 66.222656 44.691406 65.949219 45.023438 65.644531 L 45.539062 65.101562 C 45.78125 64.859375 45.78125 64.433594 45.539062 64.191406 L 44.539062 63.195312 C 44.296875 62.953125 43.902344 62.953125 43.660156 63.195312 L 43.144531 63.707031 C 42.84375 64.011719 42.539062 64.285156 42.238281 64.527344 L 40.691406 62.890625 C 41.449219 62.40625 41.996094 61.921875 42.390625 61.375 C 42.753906 60.832031 42.933594 60.226562 42.933594 59.589844 C 42.933594 58.589844 42.601562 57.804688 41.90625 57.226562 C 41.238281 56.652344 40.300781 56.347656 39.089844 56.347656 C 38.058594 56.347656 37.148438 56.652344 36.484375 57.226562 C 35.816406 57.804688 35.453125 58.558594 35.453125 59.4375 C 35.453125 59.863281 35.546875 60.316406 35.757812 60.769531 C 35.9375 61.226562 36.242188 61.679688 36.664062 62.132812 C 35.605469 62.679688 34.816406 63.285156 34.332031 63.921875 C 33.847656 64.554688 33.605469 65.28125 33.605469 66.101562 C 33.605469 67.160156 33.96875 68.039062 34.695312 68.734375 C 35.425781 69.433594 36.394531 69.765625 37.574219 69.765625 C 38.421875 69.765625 39.210938 69.644531 39.875 69.371094 C 40.570312 69.097656 41.238281 68.675781 41.875 68.070312 L 42.660156 69.007812 C 42.875 69.28125 43.207031 69.433594 43.570312 69.433594 L 45.628906 69.433594 C 46.144531 69.433594 46.417969 68.828125 46.054688 68.433594 L 44.144531 66.464844 Z M 39.148438 66.980469 C 38.816406 67.128906 38.484375 67.222656 38.179688 67.222656 C 37.753906 67.222656 37.421875 67.070312 37.121094 66.796875 C 36.847656 66.523438 36.695312 66.191406 36.695312 65.769531 C 36.695312 65.464844 36.785156 65.132812 37 64.828125 C 37.148438 64.585938 37.363281 64.3125 37.664062 64.042969 C 37.816406 63.890625 38.089844 63.890625 38.242188 64.042969 L 39.84375 65.769531 C 40.058594 65.980469 40.027344 66.34375 39.785156 66.523438 C 39.574219 66.675781 39.359375 66.828125 39.148438 66.917969 Z M 40.269531 60.257812 C 40.085938 60.527344 39.84375 60.769531 39.542969 61.042969 C 39.542969 61.042969 39.332031 61.226562 39.117188 61.226562 C 38.90625 61.226562 38.542969 60.769531 38.542969 60.769531 C 38.421875 60.589844 38.300781 60.40625 38.179688 60.164062 C 38.089844 59.953125 38.027344 59.742188 38.027344 59.589844 C 38.027344 59.195312 38.148438 58.894531 38.363281 58.679688 C 38.605469 58.46875 38.90625 58.347656 39.300781 58.347656 C 39.664062 58.347656 39.964844 58.4375 40.148438 58.652344 C 40.359375 58.863281 40.480469 59.136719 40.480469 59.46875 C 40.480469 59.710938 40.390625 59.984375 40.238281 60.226562 Z M 40.269531 60.257812 "/>
</g>
</svg>
