<?xml version="1.0" encoding="utf-8"?>
<!-- Generator: Adobe Illustrator 24.1.2, SVG Export Plug-In . SVG Version: 6.00 Build 0)  -->
<svg version="1.0" id="Capa_1" xmlns="http://www.w3.org/2000/svg" xmlns:xlink="http://www.w3.org/1999/xlink" x="0px" y="0px"
	 viewBox="0 0 704 62" style="enable-background:new 0 0 704 62;" xml:space="preserve">
<style type="text/css">
	.st0{fill-rule:evenodd;clip-rule:evenodd;fill:#F5EA14;}
	.st1{fill-rule:evenodd;clip-rule:evenodd;fill:#333333;}
	.st2{fill:none;stroke:#333333;stroke-width:0.216;stroke-miterlimit:22.9256;}
	.st3{fill-rule:evenodd;clip-rule:evenodd;fill:#FFFFFF;}
	.st4{fill:#FFFFFF;stroke:#FFFFFF;stroke-width:0.5;stroke-miterlimit:10;}
	.st5{fill:#767676;}
</style>
<g id="Capa_1_1_">
	<rect id="XMLID_286_" x="56.9" y="0.8" class="st0" width="87.7" height="60.6"/>
	<rect id="XMLID_285_" x="1" y="0.8" class="st1" width="55.9" height="60.6"/>
	<rect id="XMLID_284_" x="1" y="0.8" class="st2" width="55.9" height="60.6"/>
	<polygon id="XMLID_283_" class="st3" points="43.7,10 43.7,53.5 40.1,53.5 40.1,31.1 12.3,31.1 12.3,53.5 8.7,53.5 8.7,10 12.3,10 
		12.3,27.5 40.1,27.5 40.1,10 	"/>
	<rect id="XMLID_282_" x="48.9" y="10" class="st3" width="3.6" height="43.5"/>
	<path id="XMLID_278_" class="st1" d="M62.5,53.7l-1.6-0.2l0.1-42.9l1.4-0.3c0.5-0.1,1.2-0.2,2-0.4c0.8-0.1,1.8-0.3,2.8-0.4
		c1-0.1,2.2-0.2,3.4-0.3c1.2-0.1,2.5-0.1,3.8-0.1c1.8,0,3.7,0.1,5.4,0.4c1.5,0.2,3,0.5,4.3,0.8s2.6,0.9,3.7,1.7c1.1,0.8,2,1.8,2.7,3
		c0.7,1.3,1,2.7,0.9,4.4v0.1c0,1.7-0.2,3.2-0.6,4.4c-0.2,0.7-0.5,1.3-0.9,1.8c-0.3,0.6-0.8,1-1.3,1.5c-0.1,0.1-0.1,0.1-0.2,0.2
		s-0.1,0.1-0.2,0.2c0.7,0.2,1.3,0.5,1.9,0.8c0.6,0.3,1.2,0.6,1.7,1c1.3,1,2.3,2.3,3,3.9c0.7,1.5,1,3.3,1.2,5.6v0.1v0.4v0.1
		c0,1.2-0.1,2.4-0.2,3.5c-0.1,1.1-0.3,2.1-0.6,3.1c-0.6,2-1.7,3.7-3.2,5.1L92.1,51H92c-0.9,0.7-1.9,1.3-3.2,1.7
		c-1.2,0.4-2.5,0.7-3.8,1c-1.3,0.2-2.8,0.3-4.3,0.4c-1.5,0.1-3,0.2-4.4,0.2c-1.6,0-3.1,0-4.6-0.1c-1.5,0-2.8-0.1-4.1-0.1
		c-1.2,0-2.3-0.1-3.2-0.2C63.5,53.8,62.9,53.8,62.5,53.7z M80.7,26.2c1.3-0.1,2.4-0.2,3.2-0.5c0.8-0.2,1.5-0.6,2.1-1.2
		c0.7-0.5,1.1-1.1,1.4-1.9s0.4-1.9,0.4-3.3c0-1.4-0.3-2.3-0.7-2.9c-0.4-0.6-0.9-1.1-1.4-1.5c-0.5-0.4-1.2-0.7-1.8-0.9
		c-0.7-0.2-1.3-0.4-1.9-0.6c-0.6-0.1-1.1-0.2-1.6-0.3s-0.8-0.1-1-0.1c-0.4-0.1-1.1-0.1-1.9-0.2c-0.9-0.1-1.8-0.1-2.9-0.1
		c-0.5,0-1.3,0-2.1,0.1S70.5,13,69.6,13c-1,0.1-1.9,0.2-2.8,0.3c-0.9,0.1-1.7,0.2-2.2,0.3v12.7L80.7,26.2L80.7,26.2z M84.4,50.2
		c0.8-0.2,1.6-0.4,2.6-0.6c0.9-0.2,1.9-0.7,2.8-1.5c1-0.9,1.8-2.1,2.1-3.6c0.4-1.5,0.6-3.3,0.6-5.4c-0.1-0.9-0.2-1.8-0.3-2.5
		c-0.1-0.7-0.3-1.3-0.5-1.9s-0.4-1-0.8-1.5c-0.3-0.4-0.7-0.8-1.2-1.2c-0.9-0.8-2.1-1.3-3.5-1.7c-1.4-0.4-3-0.6-4.9-0.6h-0.7
		c-0.3,0-0.6,0-0.9,0s-0.5,0-0.7,0c-0.2,0-0.2,0,0,0H64.5v20.6c0.6,0,1.4,0.1,2.3,0.2s1.8,0.1,2.9,0.1c1,0,2.1,0.1,3.3,0.1
		s2.3,0,3.4,0c1.2,0,2.2,0,3-0.1s1.6-0.1,2.2-0.2c0.6-0.1,1.2-0.1,1.6-0.2C83.6,50.3,84,50.3,84.4,50.2L84.4,50.2z"/>
	<path id="XMLID_274_" class="st2" d="M62.5,53.7l-1.6-0.2l0.1-42.9l1.4-0.3c0.5-0.1,1.2-0.2,2-0.4c0.8-0.1,1.8-0.3,2.8-0.4
		c1-0.1,2.2-0.2,3.4-0.3c1.2-0.1,2.5-0.1,3.8-0.1c1.8,0,3.7,0.1,5.4,0.4c1.5,0.2,3,0.5,4.3,0.8s2.6,0.9,3.7,1.7c1.1,0.8,2,1.8,2.7,3
		c0.7,1.3,1,2.7,0.9,4.4v0.1c0,1.7-0.2,3.2-0.6,4.4c-0.2,0.7-0.5,1.3-0.9,1.8c-0.3,0.6-0.8,1-1.3,1.5c-0.1,0.1-0.1,0.1-0.2,0.2
		s-0.1,0.1-0.2,0.2c0.7,0.2,1.3,0.5,1.9,0.8c0.6,0.3,1.2,0.6,1.7,1c1.3,1,2.3,2.3,3,3.9c0.7,1.5,1,3.3,1.2,5.6v0.1v0.4v0.1
		c0,1.2-0.1,2.4-0.2,3.5c-0.1,1.1-0.3,2.1-0.6,3.1c-0.6,2-1.7,3.7-3.2,5.1L92.1,51H92c-0.9,0.7-1.9,1.3-3.2,1.7
		c-1.2,0.4-2.5,0.7-3.8,1c-1.3,0.2-2.8,0.3-4.3,0.4c-1.5,0.1-3,0.2-4.4,0.2c-1.6,0-3.1,0-4.6-0.1c-1.5,0-2.8-0.1-4.1-0.1
		c-1.2,0-2.3-0.1-3.2-0.2C63.5,53.8,62.9,53.8,62.5,53.7z M80.7,26.2c1.3-0.1,2.4-0.2,3.2-0.5c0.8-0.2,1.5-0.6,2.1-1.2
		c0.7-0.5,1.1-1.1,1.4-1.9s0.4-1.9,0.4-3.3c0-1.4-0.3-2.3-0.7-2.9c-0.4-0.6-0.9-1.1-1.4-1.5c-0.5-0.4-1.2-0.7-1.8-0.9
		c-0.7-0.2-1.3-0.4-1.9-0.6c-0.6-0.1-1.1-0.2-1.6-0.3s-0.8-0.1-1-0.1c-0.4-0.1-1.1-0.1-1.9-0.2c-0.9-0.1-1.8-0.1-2.9-0.1
		c-0.5,0-1.3,0-2.1,0.1S70.5,13,69.6,13c-1,0.1-1.9,0.2-2.8,0.3c-0.9,0.1-1.7,0.2-2.2,0.3v12.7L80.7,26.2L80.7,26.2z M84.4,50.2
		c0.8-0.2,1.6-0.4,2.6-0.6c0.9-0.2,1.9-0.7,2.8-1.5c1-0.9,1.8-2.1,2.1-3.6c0.4-1.5,0.6-3.3,0.6-5.4c-0.1-0.9-0.2-1.8-0.3-2.5
		c-0.1-0.7-0.3-1.3-0.5-1.9s-0.4-1-0.8-1.5c-0.3-0.4-0.7-0.8-1.2-1.2c-0.9-0.8-2.1-1.3-3.5-1.7c-1.4-0.4-3-0.6-4.9-0.6h-0.7
		c-0.3,0-0.6,0-0.9,0s-0.5,0-0.7,0c-0.2,0-0.2,0,0,0H64.5v20.6c0.6,0,1.4,0.1,2.3,0.2s1.8,0.1,2.9,0.1c1,0,2.1,0.1,3.3,0.1
		s2.3,0,3.4,0c1.2,0,2.2,0,3-0.1s1.6-0.1,2.2-0.2c0.6-0.1,1.2-0.1,1.6-0.2C83.6,50.3,84,50.3,84.4,50.2L84.4,50.2z"/>
	<path id="XMLID_270_" class="st1" d="M119.1,6c1.2,0.4,1.6,1.3,1.6,2.5c0,0.6,0,1.2,0,1.8c1.7,0.6,2.9,1.5,3.9,3
		c1.6,2.6,1.3,5.9-0.8,8.3c-0.2,0.2-0.3,0.3-0.2,0.6c1.8,4.7,3.6,9.5,5.4,14.2c0.1,0.4,0.3,0.6,0.8,0.6c1.4,0,2.8,0,4.2,0
		c0-0.3,0-0.6,0.1-1c0.7,0,1.3,0,1.9,0c0.8,0,1.5,0,2.3,0c1,0.1,1.7,0.9,1.8,1.8c0.1,1-0.6,1.9-1.6,2.1c-0.2,0-0.5,0-0.7,0
		c-1.2,0-2.5,0-3.8,0v-1h-4c0.1,0.2,0.1,0.4,0.2,0.5c0.9,2.3,1.8,4.7,2.7,7.1c0.6,1.7,0.3,3.2-0.7,4.6c-0.1,0.2-0.3,0.5-0.3,0.8
		c0,1.6,0,3.2-0.1,4.8c-0.2-0.6-0.5-1.2-0.7-1.8c-1.9-5.1-3.9-10.3-5.8-15.4c-0.1-0.4-0.3-0.5-0.8-0.5c-1.5,0-3,0-4.6,0
		c0,0.6,0,1.2,0,1.8c0,0.3,0,0.5,0,0.8c-0.1,0.7-0.6,1.2-1.3,1.1c-0.6,0-1.2-0.5-1.2-1.2c0-0.8,0-1.6,0-2.5c-0.2,0-0.3,0-0.5,0
		c-1.4,0-2.9,0-4.3,0c-0.4,0-0.5,0.2-0.6,0.5c-1.8,4.7-3.5,9.3-5.3,14c-0.4,1.1-0.8,2.1-1.3,3.2c0-0.7,0-1.3,0-2c0-0.9,0-1.9,0-2.8
		c0-0.2-0.1-0.4-0.2-0.6c-1.2-1.4-1.4-3-0.8-4.7c0.8-2.3,1.7-4.5,2.6-6.8c0.1-0.2,0.2-0.5,0.3-0.7h-3.9c0,0.3,0,0.6-0.1,1
		c-1.5,0-2.9,0-4.3,0c-0.9,0-1.7-1-1.7-1.9c0-0.9,0.6-1.9,1.5-2c1.5-0.1,3,0,4.5,0c0,0.3,0,0.5,0.1,0.8c0.2,0,0.4,0,0.6,0
		c1.3,0,2.6,0,3.8,0c0.3,0,0.4-0.1,0.5-0.3c1.7-4.4,3.3-8.9,5-13.3c0.4-1,0.3-1.6-0.3-2.6c-2.7-3.8-0.9-8.9,3.7-10.5
		c0-0.6,0-1.1,0-1.7c-0.1-1.2,0.3-2.1,1.5-2.6L119.1,6L119.1,6z M124.2,37c0-0.1-0.1-0.2-0.1-0.3c-1.5-4-3-7.9-4.5-11.9
		c-0.3-0.7-0.6-1.1-1.4-1c-0.3,0-0.4,0.1-0.5,0.4c-1.3,3.6-2.7,7.2-4.1,10.8c-0.2,0.6-0.5,1.3-0.7,2h4.4c0-0.8,0-1.6,0-2.3
		c0-0.8,0.5-1.4,1.3-1.4c0.7,0,1.2,0.6,1.2,1.4V37L124.2,37L124.2,37z M115.4,17c0,1.8,1.4,3.3,3.3,3.3c1.8,0,3.2-1.5,3.2-3.2
		c0-1.8-1.5-3.3-3.3-3.3C116.8,13.7,115.4,15.1,115.4,17z"/>
	<path id="XMLID_186_" class="st2" d="M119.1,6c1.2,0.4,1.6,1.3,1.6,2.5c0,0.6,0,1.2,0,1.8c1.7,0.6,2.9,1.5,3.9,3
		c1.6,2.6,1.3,5.9-0.8,8.3c-0.2,0.2-0.3,0.3-0.2,0.6c1.8,4.7,3.6,9.5,5.4,14.2c0.1,0.4,0.3,0.6,0.8,0.6c1.4,0,2.8,0,4.2,0
		c0-0.3,0-0.6,0.1-1c0.7,0,1.3,0,1.9,0c0.8,0,1.5,0,2.3,0c1,0.1,1.7,0.9,1.8,1.8c0.1,1-0.6,1.9-1.6,2.1c-0.2,0-0.5,0-0.7,0
		c-1.2,0-2.5,0-3.8,0v-1h-4c0.1,0.2,0.1,0.4,0.2,0.5c0.9,2.3,1.8,4.7,2.7,7.1c0.6,1.7,0.3,3.2-0.7,4.6c-0.1,0.2-0.3,0.5-0.3,0.8
		c0,1.6,0,3.2-0.1,4.8c-0.2-0.6-0.5-1.2-0.7-1.8c-1.9-5.1-3.9-10.3-5.8-15.4c-0.1-0.4-0.3-0.5-0.8-0.5c-1.5,0-3,0-4.6,0
		c0,0.6,0,1.2,0,1.8c0,0.3,0,0.5,0,0.8c-0.1,0.7-0.6,1.2-1.3,1.1c-0.6,0-1.2-0.5-1.2-1.2c0-0.8,0-1.6,0-2.5c-0.2,0-0.3,0-0.5,0
		c-1.4,0-2.9,0-4.3,0c-0.4,0-0.5,0.2-0.6,0.5c-1.8,4.7-3.5,9.3-5.3,14c-0.4,1.1-0.8,2.1-1.3,3.2c0-0.7,0-1.3,0-2c0-0.9,0-1.9,0-2.8
		c0-0.2-0.1-0.4-0.2-0.6c-1.2-1.4-1.4-3-0.8-4.7c0.8-2.3,1.7-4.5,2.6-6.8c0.1-0.2,0.2-0.5,0.3-0.7h-3.9c0,0.3,0,0.6-0.1,1
		c-1.5,0-2.9,0-4.3,0c-0.9,0-1.7-1-1.7-1.9c0-0.9,0.6-1.9,1.5-2c1.5-0.1,3,0,4.5,0c0,0.3,0,0.5,0.1,0.8c0.2,0,0.4,0,0.6,0
		c1.3,0,2.6,0,3.8,0c0.3,0,0.4-0.1,0.5-0.3c1.7-4.4,3.3-8.9,5-13.3c0.4-1,0.3-1.6-0.3-2.6c-2.7-3.8-0.9-8.9,3.7-10.5
		c0-0.6,0-1.1,0-1.7c-0.1-1.2,0.3-2.1,1.5-2.6L119.1,6L119.1,6z M124.2,37c0-0.1-0.1-0.2-0.1-0.3c-1.5-4-3-7.9-4.5-11.9
		c-0.3-0.7-0.6-1.1-1.4-1c-0.3,0-0.4,0.1-0.5,0.4c-1.3,3.6-2.7,7.2-4.1,10.8c-0.2,0.6-0.5,1.3-0.7,2h4.4c0-0.8,0-1.6,0-2.3
		c0-0.8,0.5-1.4,1.3-1.4c0.7,0,1.2,0.6,1.2,1.4V37L124.2,37L124.2,37z M115.4,17c0,1.8,1.4,3.3,3.3,3.3c1.8,0,3.2-1.5,3.2-3.2
		c0-1.8-1.5-3.3-3.3-3.3C116.8,13.7,115.4,15.1,115.4,17z"/>
	<path id="XMLID_127_" class="st4" d="M347.1,33.2V18.1h1.3v15.1H347.1z M333.1,33.2V18.1h1.1L344,31V18.1h1.3v15.1h-1.1l-9.8-12.9
		v12.9C334.4,33.2,333.1,33.2,333.1,33.2z M330,33.2V18.1h1.3v15.1H330z M327,18.1h1.3v15.1H327v-7.8h-9.6v7.8h-1.3V18.1h1.3v6.1
		h9.6V18.1z M307.7,33.3c-0.4-0.1-0.8-0.2-1.1-0.3c-0.4-0.1-0.7-0.3-1-0.5v0c-0.5-0.3-0.9-0.7-1.2-1.2c-0.3-0.4-0.6-0.9-0.7-1.5
		c-0.2-0.5-0.3-1.2-0.3-1.8c0-0.7-0.1-1.5-0.1-2.3c0-0.9,0-1.7,0.1-2.3s0.1-1.3,0.3-1.8c0.3-1.1,1-2,1.9-2.7c0.3-0.2,0.6-0.4,1-0.5
		c0.3-0.1,0.7-0.2,1.1-0.3c0.4-0.1,0.8-0.1,1.3-0.1c0.4,0,0.9,0,1.3-0.1c0.9,0,1.6,0,2.4,0.1c0.7,0.1,1.4,0.2,1.8,0.2l0.4,0.1
		l-0.2,1.2l-0.4-0.1c-0.6-0.1-1.2-0.1-1.7-0.2s-0.9-0.1-1.3-0.1c-0.4,0-0.8,0-1.1,0c-0.4,0-0.8,0-1.2,0c-0.4,0-0.8,0.1-1.1,0.1
		c-0.7,0.1-1.2,0.3-1.6,0.6c-0.4,0.3-0.7,0.6-1,0.9c-0.2,0.3-0.4,0.7-0.5,1.1c-0.1,0.4-0.2,1-0.3,1.5c0,0.6-0.1,1.4-0.1,2.2v0.1
		c0,0.9,0,1.6,0.1,2.2c0,0.6,0.1,1.1,0.3,1.6s0.3,0.8,0.5,1.1c0.2,0.3,0.5,0.6,1,0.9c0.3,0.3,0.9,0.4,1.6,0.6
		c0.3,0.1,0.7,0.1,1.1,0.1c0.4,0,0.8,0,1.2,0c0.6,0,1.1,0,1.7-0.1c0.5,0,0.9-0.1,1.4-0.1c0.5,0,0.8-0.1,1-0.2l0.4-0.1l0.2,1.2
		l-0.4,0.1c-0.5,0.1-1.1,0.2-1.8,0.2c-0.8,0.1-1.6,0.1-2.4,0.1c-0.4,0-0.9,0-1.3,0C308.5,33.4,308.1,33.3,307.7,33.3z M289.5,33.2
		V18.1h1.1l9.8,12.9V18.1h1.3v15.1h-1.1l-9.8-12.9v12.9C290.7,33.2,289.5,33.2,289.5,33.2z M279.5,26.7h5l-2.5-6.4L279.5,26.7z
		 M286.9,33.2l-2-5.3H279l-2,5.3h-1.4l5.9-15.1h1l5.8,15.1H286.9z M269.4,23.8c0.5,0,0.8-0.1,1.1-0.2c0.3-0.1,0.5-0.2,0.7-0.4
		s0.4-0.4,0.5-0.7c0.1-0.3,0.1-0.6,0.1-1.1c0-0.5-0.1-0.8-0.2-1c-0.1-0.2-0.3-0.4-0.5-0.5c-0.2-0.1-0.4-0.2-0.6-0.3
		c-0.2-0.1-0.5-0.1-0.7-0.2c-0.2,0-0.4-0.1-0.6-0.1c-0.2,0-0.3,0-0.4,0c-0.1,0-0.4-0.1-0.7-0.1c-0.3,0-0.6,0-1,0c-0.2,0-0.4,0-0.7,0
		s-0.6,0.1-1,0.1c-0.3,0-0.7,0.1-1,0.1c-0.3,0-0.6,0.1-0.8,0.1v4.4C263.8,23.8,269.4,23.8,269.4,23.8z M270.7,32.1
		c0.3-0.1,0.6-0.1,0.9-0.2c0.3-0.1,0.6-0.2,1-0.5c0.4-0.3,0.6-0.7,0.7-1.3c0.1-0.5,0.2-1.1,0.2-1.9c0-0.3-0.1-0.6-0.1-0.9
		c0-0.2-0.1-0.5-0.2-0.6s-0.2-0.4-0.3-0.5c-0.1-0.1-0.3-0.3-0.4-0.4c-0.3-0.3-0.7-0.5-1.2-0.6c-0.5-0.1-1-0.2-1.7-0.2
		c-0.1,0-0.1,0-0.2,0c-0.1,0-0.2,0-0.3,0c-0.1,0-0.2,0-0.2,0s-0.1,0,0,0h-5.1v7.1c0.2,0,0.5,0,0.8,0s0.6,0,1,0.1c0.4,0,0.7,0,1.1,0
		c0.4,0,0.8,0,1.2,0c0.4,0,0.7,0,1,0c0.3,0,0.5,0,0.8-0.1s0.4,0,0.6-0.1C270.4,32.1,270.6,32.1,270.7,32.1z M263.1,33.3l-0.6-0.1
		l0-14.9l0.5-0.1c0.2,0,0.4-0.1,0.7-0.1c0.3,0,0.6-0.1,1-0.1c0.4,0,0.8-0.1,1.2-0.1c0.4,0,0.9,0,1.3,0c0.6,0,1.3,0,1.9,0.1
		c0.5,0.1,1,0.2,1.5,0.3c0.5,0.1,0.9,0.3,1.3,0.6s0.7,0.6,0.9,1c0.2,0.4,0.3,1,0.3,1.5v0c0,0.6-0.1,1.1-0.2,1.5
		c-0.1,0.2-0.2,0.4-0.3,0.6c-0.1,0.2-0.3,0.4-0.4,0.5c0,0,0,0-0.1,0.1c0,0-0.1,0-0.1,0.1c0.2,0.1,0.4,0.2,0.7,0.3s0.4,0.2,0.6,0.4
		c0.5,0.3,0.8,0.8,1,1.4c0.2,0.5,0.4,1.1,0.4,1.9v0v0.1v0c0,0.4,0,0.8,0,1.2c0,0.4-0.1,0.7-0.2,1.1c-0.2,0.7-0.6,1.3-1.1,1.8l0,0h0
		c-0.3,0.3-0.7,0.4-1.1,0.6c-0.4,0.1-0.9,0.3-1.4,0.3c-0.5,0.1-1,0.1-1.5,0.2c-0.5,0-1,0-1.5,0c-0.5,0-1.1,0-1.6,0c-0.5,0-1,0-1.4,0
		c-0.4,0-0.8,0-1.1,0C263.5,33.4,263.2,33.3,263.1,33.3z M244.3,31.4c0.4,0.3,0.9,0.5,1.4,0.6c0.5,0.1,1,0.2,1.5,0.2
		c0.5,0,1-0.1,1.5-0.2c0.5-0.1,0.9-0.3,1.4-0.5c-0.6-0.3-1.1-0.7-1.7-1.1c-0.6-0.4-1.1-0.8-1.6-1.2c-0.5-0.4-1.1-0.9-1.5-1.3
		c-0.5-0.4-0.9-0.9-1.3-1.4c-0.3,0.4-0.5,0.8-0.7,1.3c-0.2,0.5-0.2,0.9-0.2,1.4c0,0.3,0.1,0.7,0.3,1.1
		C243.4,30.7,243.8,31,244.3,31.4z M245.5,19.1c-0.4,0.1-0.8,0.2-1.1,0.4c-0.3,0.2-0.5,0.5-0.6,0.8c-0.1,0.3-0.2,0.7-0.2,1.2
		c0,0.5,0,1,0,1.5c0,0.5,0.2,1.1,0.5,1.6c0.2-0.1,0.3-0.2,0.5-0.4c0.2-0.1,0.4-0.2,0.5-0.4c0.4-0.2,0.8-0.5,1.1-0.8
		c0.4-0.3,0.7-0.5,1-0.8c0.3-0.3,0.5-0.6,0.7-0.9c0.2-0.3,0.2-0.6,0.2-1c0-0.3-0.1-0.5-0.4-0.7c-0.2-0.2-0.5-0.3-0.9-0.4
		c-0.4-0.1-0.7-0.1-1.1-0.1c-0.1,0-0.1,0-0.2,0S245.6,19.1,245.5,19.1z M253,33.3c-0.1-0.1-0.3-0.2-0.4-0.2
		c-0.1-0.1-0.3-0.2-0.4-0.2c-0.2-0.1-0.3-0.2-0.5-0.3c-0.2-0.1-0.3-0.2-0.5-0.3c-0.9,0.6-1.8,1-2.9,1.1c-0.9,0.1-1.7,0.1-2.5,0
		c-0.8-0.2-1.6-0.5-2.2-0.9c-0.5-0.4-1-0.8-1.3-1.4c-0.3-0.5-0.5-1.1-0.6-1.8c0-0.7,0.1-1.4,0.3-2c0.2-0.7,0.6-1.3,1.1-1.8
		c-0.2-0.4-0.4-0.8-0.5-1.1c-0.1-0.4-0.2-0.8-0.2-1.2c0-0.5-0.1-1.1,0-1.6c0-0.5,0.1-1,0.3-1.5c0.4-1.2,1.4-1.9,2.8-2.1
		c0.2,0,0.5,0,0.8,0c0.3,0,0.6,0,0.9,0.1s0.6,0.2,0.9,0.3c0.3,0.1,0.5,0.3,0.8,0.5c0.5,0.4,0.8,1,0.8,1.6c0,0.5-0.1,1-0.3,1.5
		c-0.2,0.4-0.5,0.9-0.9,1.2c-0.4,0.4-0.8,0.7-1.2,1c-0.5,0.3-0.9,0.6-1.3,0.9c-0.2,0.1-0.4,0.3-0.6,0.4c-0.2,0.1-0.4,0.2-0.5,0.4
		c0.3,0.5,0.8,0.9,1.3,1.4c0.5,0.5,1,0.9,1.6,1.3c0.5,0.4,1.1,0.8,1.7,1.2c0.6,0.4,1.2,0.8,1.8,1.1c0,0,0.1-0.1,0.1-0.1
		c0,0,0.1-0.1,0.1-0.1c0.2-0.2,0.3-0.4,0.5-0.7c0.2-0.3,0.3-0.6,0.3-0.9c0-0.3,0-0.7-0.1-1.2c-0.1-0.4-0.4-0.9-0.8-1.4l0,0h1.5
		c0.5,0.8,0.7,1.7,0.6,2.5c-0.1,0.9-0.4,1.7-1.1,2.4l-0.1,0.1c0.1,0.1,0.2,0.1,0.3,0.2s0.2,0.1,0.3,0.2c0.2,0.1,0.4,0.2,0.7,0.4
		c0.2,0.1,0.5,0.3,0.7,0.4c0.2,0.1,0.4,0.3,0.7,0.4c0.2,0.1,0.4,0.3,0.6,0.4h0L253,33.3L253,33.3z M232.9,25.6c0-0.9,0-1.6-0.1-2.2
		s-0.1-1.1-0.2-1.5c-0.1-0.4-0.3-0.8-0.5-1.1c-0.2-0.3-0.5-0.6-0.9-0.9c-0.1-0.1-0.4-0.2-0.6-0.3c-0.3-0.1-0.6-0.2-0.9-0.3
		c-0.7-0.1-1.5-0.2-2.4-0.2h-0.1c-0.9,0-1.6,0.1-2.4,0.2c-0.3,0.1-0.7,0.2-0.9,0.3c-0.3,0.1-0.5,0.2-0.6,0.3
		c-0.4,0.3-0.7,0.6-0.9,0.9c-0.2,0.3-0.4,0.7-0.5,1.1c-0.1,0.4-0.2,1-0.2,1.5c0,0.6-0.1,1.3-0.1,2.2v0v0v0c0,0.9,0,1.6,0.1,2.2
		s0.1,1.1,0.2,1.5c0.1,0.4,0.3,0.8,0.5,1.1c0.2,0.3,0.5,0.6,0.9,0.9c0.3,0.2,0.8,0.4,1.6,0.6c0.3,0.1,0.7,0.1,1.1,0.2
		c0.4,0,0.8,0.1,1.2,0.1h0.1c0.4,0,0.8,0,1.3-0.1c0.4,0,0.8-0.1,1.1-0.2c0.7-0.1,1.3-0.3,1.6-0.6c0.4-0.3,0.7-0.6,0.9-0.9
		c0.2-0.3,0.4-0.6,0.5-1.1c0.1-0.4,0.2-1,0.2-1.5C233,27.3,233,26.5,232.9,25.6L232.9,25.6L232.9,25.6L232.9,25.6z M233.9,21.6
		c0.1,0.5,0.2,1.1,0.3,1.8c0,0.7,0.1,1.4,0.1,2.3c0,0.9,0,1.6-0.1,2.3s-0.1,1.3-0.3,1.8c-0.3,1.1-0.9,2-1.8,2.6
		c-0.3,0.2-0.6,0.4-0.9,0.5c-0.4,0.1-0.7,0.2-1.2,0.3c-0.8,0.2-1.7,0.2-2.7,0.2s-1.8-0.1-2.7-0.2c-0.4-0.1-0.8-0.2-1.1-0.3
		c-0.4-0.1-0.7-0.3-0.9-0.5c-0.9-0.7-1.5-1.6-1.8-2.6c-0.1-0.5-0.2-1.1-0.3-1.8c0-0.7-0.1-1.4-0.1-2.3c0-0.9,0-1.6,0.1-2.3
		c0-0.6,0.1-1.2,0.3-1.8c0.3-1.1,0.9-1.9,1.8-2.6c0.3-0.2,0.6-0.4,0.9-0.5c0.3-0.1,0.7-0.2,1.1-0.3c0.4-0.1,0.9-0.2,1.3-0.2
		c0.4,0,0.9-0.1,1.4-0.1c0.5,0,0.9,0,1.4,0.1c0.4,0,0.9,0.1,1.3,0.2c0.4,0.1,0.8,0.2,1.2,0.3c0.3,0.1,0.7,0.3,0.9,0.5
		C233,19.6,233.6,20.5,233.9,21.6z M210.7,33.1c-0.8-0.3-1.5-0.7-2-1.3c-0.6-0.6-1.1-1.5-1.4-2.5c-0.3-1.1-0.4-2.4-0.4-4
		c0.1-1.6,0.2-2.9,0.5-3.8c0.3-1,0.8-1.7,1.4-2.2c0.3-0.3,0.6-0.5,0.9-0.6c0.3-0.1,0.7-0.3,1.1-0.4c0.3-0.1,0.7-0.1,1.2-0.2
		c0.4,0,0.8-0.1,1-0.1c0.3,0,0.5,0,0.7,0c0.1,0,0.3,0,0.5,0c0.6,0,1.2,0,1.7,0.1c0.6,0,1.1,0.1,1.5,0.2c0.5,0.1,1.1,0.1,1.5,0.2
		l-0.2,1.2c-0.6-0.1-1.3-0.2-1.9-0.2c-0.6-0.1-1.2-0.1-1.8-0.1c-0.6,0-1.3,0-1.8,0c-0.4,0-0.7,0.1-1.1,0.1c-0.3,0-0.7,0.1-1,0.2
		c-0.6,0.1-1.1,0.4-1.5,0.7c-0.2,0.2-0.4,0.4-0.5,0.6c-0.2,0.3-0.3,0.6-0.5,1c-0.1,0.2-0.1,0.4-0.1,0.5c0,0.1-0.1,0.3-0.1,0.5
		c0,0.2-0.1,0.5-0.1,0.9c0,0.4-0.1,0.9-0.2,1.5c0,1.6,0.1,2.8,0.4,3.7c0.3,0.9,0.6,1.6,1.1,2c0.2,0.2,0.4,0.4,0.7,0.5
		c0.2,0.1,0.5,0.3,0.8,0.4c0.1,0.1,0.3,0.1,0.4,0.1c0.1,0,0.3,0.1,0.4,0.1s0.3,0,0.5,0.1c0.2,0,0.4,0,0.7,0.1c0.4,0,0.9,0,1.4,0
		c0.5,0,1-0.1,1.5-0.1c0.5,0,0.9-0.1,1.2-0.1c0.3,0,0.5,0,0.6,0l0-6.5h-5.1v-1.3h6.3V33c-0.6,0.1-1.3,0.2-1.9,0.3
		c-0.6,0.1-1.2,0.1-1.9,0.2c-0.7,0-1.4,0-2.1,0c-0.3,0-0.5,0-0.7,0s-0.4-0.1-0.6-0.1c-0.2,0-0.4-0.1-0.5-0.1
		C211,33.2,210.9,33.1,210.7,33.1z M194.8,33.2V18.1h1.3V32h10.1v1.3H194.8z M184.8,26.7h4.9l-2.5-6.4L184.8,26.7z M192.2,33.2
		l-2-5.3h-5.9l-2,5.3H181l5.9-15.1h0.9l5.8,15.1H192.2z M169.4,32.1c0.4,0,0.8,0,1.3,0.1c0.5,0,0.9,0,1.4,0c0.6,0,1.2,0,1.8-0.1
		c0.6,0,1.1-0.1,1.4-0.2c0.7-0.2,1.3-0.4,1.7-0.7c0.4-0.3,0.8-0.7,1-1.1c0.3-0.5,0.5-1.1,0.6-1.8c0.1-0.7,0.2-1.6,0.2-2.6
		c0-1-0.1-1.9-0.2-2.6c-0.1-0.7-0.3-1.3-0.6-1.7s-0.5-0.8-0.8-1.1c-0.3-0.3-0.7-0.5-1.1-0.6c-0.3-0.1-0.5-0.2-0.8-0.3
		s-0.6-0.1-0.9-0.2c-0.3,0-0.6,0-1-0.1c-0.3,0-0.7,0-1,0c-0.8,0-1.5,0-2.1,0.1s-1.1,0.1-1.5,0.2c0,0.1,0,0.3,0,0.7
		c0,0.4,0,0.9,0,1.5c0,0.6,0,1.3,0,2s0,1.5,0,2.3c0,0.8,0,1.5,0,2.2c0,0.7,0,1.4,0,2c0,0.6,0,1,0,1.4c0,0.4,0,0.5,0,0.6
		C168.8,32.1,169.1,32.1,169.4,32.1z M167.3,33.2V18.4c0.2,0,0.4-0.1,0.6-0.1c0.2,0,0.4-0.1,0.7-0.1c0.3,0,0.5-0.1,0.8-0.1
		c0.4,0,0.8-0.1,1.3-0.1c0.5,0,1,0,1.5,0c0.3,0,0.7,0,1.1,0c0.3,0,0.7,0,1,0.1c0.2,0,0.4,0.1,0.6,0.1c0.3,0.1,0.5,0.1,0.8,0.2
		c0.3,0.1,0.6,0.2,0.9,0.3c0.3,0.1,0.5,0.3,0.8,0.4c0.5,0.3,0.9,0.7,1.3,1.2c0.4,0.5,0.6,1.1,0.9,1.9c0.1,0.5,0.3,1,0.3,1.7
		s0.1,1.3,0.1,2c0,0.7-0.1,1.4-0.1,2.1c-0.1,0.7-0.2,1.4-0.4,2c-0.2,0.5-0.4,1-0.7,1.5s-0.7,0.8-1.1,1.1c-0.6,0.4-1.3,0.7-2.1,0.9
		c-0.5,0.1-1,0.2-1.6,0.2s-1.2,0.1-1.9,0.1c-0.5,0-1,0-1.5,0s-1.1-0.1-1.5-0.1C168.4,33.3,167.9,33.3,167.3,33.2z M164.2,33.2V18.1
		h1.3v15.1H164.2z M161.1,18.1h1.3v15.1h-1.3v-7.8h-9.6v7.8h-1.3V18.1h1.3v6.1h9.6V18.1z"/>
	<rect x="702" class="st5" width="1" height="62"/>
	<g>
		<path class="st4" d="M243.8,48.6c-0.2,0-0.4-0.1-0.6-0.2s-0.4-0.2-0.5-0.3v0c-0.3-0.2-0.5-0.4-0.7-0.7s-0.3-0.5-0.4-0.8
			c-0.1-0.3-0.1-0.6-0.2-1c0-0.4,0-0.8,0-1.3s0-0.9,0-1.3c0-0.4,0.1-0.7,0.2-1c0.2-0.6,0.5-1.1,1.1-1.5c0.2-0.1,0.3-0.2,0.5-0.3
			s0.4-0.1,0.6-0.2s0.4-0.1,0.7-0.1s0.5,0,0.7,0c0.5,0,0.9,0,1.3,0.1c0.4,0,0.8,0.1,1,0.1l0.3,0l-0.1,0.7l-0.3,0
			c-0.3,0-0.6-0.1-0.9-0.1s-0.5,0-0.7-0.1c-0.2,0-0.4,0-0.6,0c-0.2,0-0.4,0-0.7,0c-0.2,0-0.4,0-0.6,0.1c-0.4,0.1-0.7,0.2-0.9,0.3
			c-0.2,0.2-0.4,0.3-0.5,0.5c-0.1,0.2-0.2,0.4-0.3,0.6c-0.1,0.2-0.1,0.5-0.1,0.9c0,0.3,0,0.8,0,1.2v0c0,0.5,0,0.9,0,1.2
			s0.1,0.6,0.1,0.9c0.1,0.2,0.2,0.4,0.3,0.6c0.1,0.2,0.3,0.3,0.5,0.5c0.2,0.1,0.5,0.3,0.9,0.3c0.2,0,0.4,0.1,0.6,0.1
			c0.2,0,0.4,0,0.7,0c0.3,0,0.6,0,0.9,0c0.3,0,0.5,0,0.8-0.1c0.3,0,0.4,0,0.6-0.1l0.3,0l0.1,0.7l-0.3,0c-0.3,0-0.6,0.1-1,0.1
			s-0.9,0.1-1.3,0.1c-0.2,0-0.5,0-0.7,0C244.3,48.7,244.1,48.6,243.8,48.6z"/>
		<path class="st4" d="M257.5,42.1c0.1,0.3,0.1,0.6,0.2,1c0,0.4,0,0.8,0,1.3c0,0.5,0,0.9,0,1.3s-0.1,0.7-0.2,1
			c-0.2,0.6-0.5,1.1-1,1.5c-0.1,0.1-0.3,0.2-0.5,0.3s-0.4,0.1-0.6,0.2c-0.5,0.1-0.9,0.1-1.5,0.1c-0.5,0-1,0-1.5-0.1
			c-0.2,0-0.4-0.1-0.6-0.2s-0.4-0.2-0.5-0.3c-0.5-0.4-0.9-0.9-1-1.5c-0.1-0.3-0.1-0.6-0.2-1c0-0.4,0-0.8,0-1.3c0-0.5,0-0.9,0-1.3
			s0.1-0.7,0.2-1c0.2-0.6,0.5-1.1,1-1.5c0.1-0.1,0.3-0.2,0.5-0.3c0.2-0.1,0.4-0.1,0.6-0.2s0.5-0.1,0.7-0.1c0.3,0,0.5,0,0.8,0
			s0.5,0,0.8,0s0.5,0.1,0.7,0.1c0.2,0,0.4,0.1,0.6,0.2c0.2,0.1,0.4,0.2,0.5,0.3C257.1,41,257.4,41.5,257.5,42.1z M257,44.4
			c0-0.5,0-0.9,0-1.2c0-0.3-0.1-0.6-0.1-0.9c-0.1-0.2-0.2-0.4-0.3-0.6s-0.3-0.3-0.5-0.5c-0.1-0.1-0.2-0.1-0.4-0.2
			c-0.1-0.1-0.3-0.1-0.5-0.2c-0.4-0.1-0.9-0.1-1.3-0.1h0c-0.5,0-0.9,0-1.3,0.1c-0.2,0-0.4,0.1-0.5,0.2s-0.3,0.1-0.4,0.2
			c-0.2,0.2-0.4,0.3-0.5,0.5s-0.2,0.4-0.3,0.6c-0.1,0.2-0.1,0.5-0.1,0.9c0,0.3,0,0.7,0,1.2v0v0v0c0,0.5,0,0.9,0,1.2
			c0,0.3,0.1,0.6,0.1,0.9c0.1,0.2,0.2,0.4,0.3,0.6s0.3,0.3,0.5,0.5c0.2,0.1,0.5,0.2,0.9,0.3c0.2,0,0.4,0.1,0.6,0.1
			c0.2,0,0.5,0,0.7,0h0c0.2,0,0.5,0,0.7,0s0.4-0.1,0.6-0.1c0.4-0.1,0.7-0.2,0.9-0.3c0.2-0.2,0.4-0.3,0.5-0.5s0.2-0.4,0.3-0.6
			c0.1-0.2,0.1-0.5,0.1-0.9C257,45.3,257,44.9,257,44.4L257,44.4L257,44.4L257,44.4z"/>
		<path class="st4" d="M260.3,40.2h0.6l5.4,7.2v-7.2h0.7v8.4h-0.6l-5.4-7.2v7.2h-0.7L260.3,40.2L260.3,40.2z"/>
		<path class="st4" d="M269.5,48.6l0-0.7c0.3,0,0.6,0,1,0.1c0.3,0,0.5,0,0.9,0c0.3,0,0.6,0,0.8,0s0.4,0,0.6,0c0.1,0,0.3,0,0.4,0
			c0.1,0,0.2,0,0.3-0.1c0.1,0,0.2,0,0.3-0.1c0.1,0,0.2-0.1,0.3-0.1s0.1-0.1,0.2-0.1c0,0,0.1-0.1,0.1-0.2c0,0,0.1-0.1,0.1-0.2
			c0.1-0.1,0.1-0.2,0.2-0.3s0-0.2,0.1-0.3c0-0.1,0-0.2,0-0.3c0-0.1,0-0.3,0-0.4s-0.1-0.3-0.2-0.4c-0.1-0.1-0.2-0.3-0.4-0.4
			s-0.4-0.2-0.6-0.3c-0.4-0.1-0.7-0.2-1.1-0.4s-0.8-0.3-1.3-0.4c-0.1,0-0.3-0.1-0.4-0.2c-0.1-0.1-0.3-0.2-0.5-0.4s-0.3-0.4-0.4-0.6
			c-0.1-0.2-0.1-0.5-0.1-0.7c0-0.1,0-0.2,0-0.3c0-0.1,0-0.2,0.1-0.3c0-0.1,0.1-0.2,0.2-0.4s0.2-0.2,0.3-0.4c0.1-0.1,0.3-0.2,0.5-0.3
			s0.3-0.1,0.5-0.2s0.3,0,0.4-0.1c0.1,0,0.2,0,0.2,0h2.5v0.7h-2.5c-0.5,0-0.8,0.1-1,0.3c-0.1,0.1-0.2,0.2-0.3,0.3
			c-0.1,0.1-0.1,0.3-0.1,0.5c0,0.1,0,0.2,0,0.3c0,0.1,0.1,0.2,0.1,0.3c0,0.1,0.1,0.1,0.1,0.2s0.1,0.1,0.1,0.1c0,0,0.1,0.1,0.2,0.2
			c0.1,0.1,0.3,0.2,0.4,0.2c0.1,0,0.2,0.1,0.4,0.1c0.2,0.1,0.4,0.1,0.6,0.2s0.5,0.2,0.7,0.2s0.5,0.2,0.6,0.2
			c0.3,0.1,0.6,0.3,0.8,0.4c0.2,0.2,0.4,0.3,0.5,0.5s0.2,0.4,0.3,0.6c0.1,0.2,0.1,0.4,0.1,0.5c0,0.1,0,0.3,0,0.6
			c0,0.2-0.1,0.5-0.3,0.7c-0.1,0.1-0.1,0.2-0.2,0.3c-0.1,0.1-0.1,0.2-0.2,0.2s-0.2,0.1-0.3,0.2c-0.1,0.1-0.2,0.1-0.3,0.2
			s-0.3,0.1-0.4,0.1c-0.1,0-0.3,0.1-0.5,0.1s-0.3,0-0.5,0c-0.1,0-0.3,0-0.4,0c-0.1,0-0.3,0-0.6,0c-0.3,0-0.6,0-0.9,0
			C270.3,48.6,270,48.6,269.5,48.6z"/>
		<path class="st4" d="M283.7,40.8h-3v7.7h-0.7v-7.7h-2.9v-0.7h6.5V40.8z"/>
		<path class="st4" d="M292.3,48.6l-1.7-2.8c-0.5,0-0.9,0-1.5-0.1s-1.2-0.2-1.9-0.2v3.1h-0.7v-8.3c0.5,0,1-0.1,1.5-0.1
			c0.2,0,0.4,0,0.6,0c0.2,0,0.4,0,0.5,0c0.2,0,0.3,0,0.5,0s0.2,0,0.3,0c0.4,0,0.8,0,1.1,0c0.3,0,0.5,0.1,0.7,0.1
			c0.2,0.1,0.4,0.1,0.5,0.2c0.1,0,0.2,0.1,0.3,0.2c0.1,0.1,0.2,0.2,0.3,0.3s0.2,0.2,0.2,0.4c0.1,0.2,0.1,0.4,0.2,0.6
			s0.1,0.5,0.1,0.8c0,0.2,0,0.5,0,0.7s0,0.4-0.1,0.5c0,0.2-0.1,0.3-0.1,0.5c-0.1,0.2-0.1,0.4-0.2,0.5s-0.2,0.3-0.3,0.4
			c-0.2,0.2-0.4,0.3-0.5,0.4c-0.2,0.1-0.4,0.2-0.7,0.2l1.7,2.8L292.3,48.6L292.3,48.6z M291.5,45c0.2-0.1,0.3-0.1,0.5-0.2
			c0.1-0.1,0.2-0.2,0.3-0.4c0.1-0.2,0.2-0.4,0.2-0.6s0.1-0.6,0.1-0.9c0-0.3,0-0.5,0-0.7s-0.1-0.4-0.1-0.5s-0.1-0.3-0.2-0.3
			c-0.1-0.1-0.2-0.2-0.3-0.2c-0.1-0.1-0.2-0.1-0.4-0.2s-0.3-0.1-0.5-0.1s-0.4,0-0.6,0c-0.2,0-0.4,0-0.6,0s-0.4,0-0.7,0
			c-0.2,0-0.5,0-0.7,0c-0.2,0-0.5,0-0.7,0s-0.4,0-0.5,0v3.9c0.7,0.1,1.4,0.2,1.9,0.3c0.6,0.1,1,0.1,1.4,0.1c0.2,0,0.3,0,0.4,0
			c0.1,0,0.2,0,0.3,0C291.3,45.1,291.4,45.1,291.5,45C291.4,45,291.5,45,291.5,45z"/>
		<path class="st4" d="M298,48.5c-0.2,0-0.4-0.1-0.6-0.2c-0.2-0.1-0.4-0.2-0.5-0.3c-0.5-0.4-0.8-0.9-1-1.5c-0.1-0.3-0.1-0.6-0.1-1
			s0-0.8,0-1.3v-4.2h0.7v4.2c0,0.5,0,0.9,0,1.2s0.1,0.6,0.1,0.9c0.1,0.2,0.1,0.4,0.3,0.6s0.3,0.3,0.5,0.5c0.1,0.1,0.2,0.1,0.3,0.2
			s0.3,0.1,0.5,0.2c0.2,0,0.4,0.1,0.5,0.1c0.2,0,0.4,0,0.7,0s0.5,0,0.7,0c0.2,0,0.4,0,0.5-0.1c0.2,0,0.4-0.1,0.5-0.2
			s0.2-0.1,0.3-0.2c0.2-0.2,0.3-0.3,0.5-0.5c0.1-0.2,0.2-0.4,0.3-0.6c0.1-0.2,0.1-0.5,0.1-0.9s0-0.7,0-1.2v-4.2h0.7v4.2
			c0,0.5,0,0.9,0,1.3s-0.1,0.7-0.1,1c-0.2,0.6-0.5,1.1-0.9,1.5c-0.1,0.1-0.3,0.2-0.5,0.3c-0.2,0.1-0.4,0.1-0.6,0.2
			c-0.2,0-0.4,0.1-0.7,0.1c-0.2,0-0.5,0-0.7,0s-0.5,0-0.7,0C298.5,48.6,298.2,48.6,298,48.5z"/>
		<path class="st4" d="M308,48.6c-0.2,0-0.4-0.1-0.6-0.2s-0.4-0.2-0.5-0.3v0c-0.3-0.2-0.5-0.4-0.7-0.7s-0.3-0.5-0.4-0.8
			c-0.1-0.3-0.1-0.6-0.2-1c0-0.4,0-0.8,0-1.3s0-0.9,0-1.3c0-0.4,0.1-0.7,0.2-1c0.2-0.6,0.5-1.1,1.1-1.5c0.2-0.1,0.3-0.2,0.5-0.3
			s0.4-0.1,0.6-0.2s0.5-0.1,0.7-0.1s0.5,0,0.7,0c0.5,0,0.9,0,1.3,0.1c0.4,0,0.8,0.1,1,0.1l0.3,0l-0.1,0.7l-0.3,0
			c-0.3,0-0.6-0.1-0.9-0.1s-0.5,0-0.7-0.1c-0.2,0-0.5,0-0.6,0c-0.2,0-0.4,0-0.7,0c-0.2,0-0.4,0-0.6,0.1c-0.4,0.1-0.7,0.2-0.9,0.3
			c-0.2,0.2-0.4,0.3-0.5,0.5c-0.1,0.2-0.2,0.4-0.3,0.6s-0.1,0.5-0.1,0.9c0,0.3,0,0.8,0,1.2v0c0,0.5,0,0.9,0,1.2s0.1,0.6,0.1,0.9
			c0.1,0.2,0.2,0.4,0.3,0.6c0.1,0.2,0.3,0.3,0.5,0.5c0.2,0.1,0.5,0.3,0.9,0.3c0.2,0,0.4,0.1,0.6,0.1c0.2,0,0.4,0,0.7,0
			c0.3,0,0.6,0,0.9,0c0.3,0,0.5,0,0.8-0.1c0.3,0,0.4,0,0.6-0.1l0.3,0l0.1,0.7l-0.3,0c-0.3,0-0.6,0.1-1,0.1c-0.4,0-0.9,0.1-1.3,0.1
			c-0.2,0-0.5,0-0.7,0C308.4,48.7,308.2,48.6,308,48.6z"/>
		<path class="st4" d="M320.4,40.8h-3v7.7h-0.7v-7.7h-2.9v-0.7h6.5V40.8z"/>
		<path class="st4" d="M330,42.1c0.1,0.3,0.1,0.6,0.2,1c0,0.4,0,0.8,0,1.3c0,0.5,0,0.9,0,1.3s-0.1,0.7-0.2,1c-0.2,0.6-0.5,1.1-1,1.5
			c-0.1,0.1-0.3,0.2-0.5,0.3s-0.4,0.1-0.6,0.2c-0.5,0.1-1,0.1-1.5,0.1c-0.5,0-1,0-1.5-0.1c-0.2,0-0.4-0.1-0.6-0.2s-0.4-0.2-0.5-0.3
			c-0.5-0.4-0.9-0.9-1-1.5c-0.1-0.3-0.1-0.6-0.2-1c0-0.4,0-0.8,0-1.3c0-0.5,0-0.9,0-1.3s0.1-0.7,0.2-1c0.2-0.6,0.5-1.1,1-1.5
			c0.1-0.1,0.3-0.2,0.5-0.3c0.2-0.1,0.4-0.1,0.6-0.2s0.5-0.1,0.7-0.1c0.3,0,0.5,0,0.8,0s0.5,0,0.8,0s0.5,0.1,0.7,0.1
			c0.2,0,0.4,0.1,0.6,0.2s0.4,0.2,0.5,0.3C329.5,41,329.9,41.5,330,42.1z M329.5,44.4c0-0.5,0-0.9,0-1.2c0-0.3-0.1-0.6-0.1-0.9
			c-0.1-0.2-0.2-0.4-0.3-0.6s-0.3-0.3-0.5-0.5c-0.1-0.1-0.2-0.1-0.4-0.2s-0.3-0.1-0.5-0.2c-0.4-0.1-0.9-0.1-1.3-0.1h0
			c-0.5,0-0.9,0-1.3,0.1c-0.2,0-0.4,0.1-0.5,0.2s-0.3,0.1-0.4,0.2c-0.2,0.2-0.4,0.3-0.5,0.5s-0.2,0.4-0.3,0.6
			c-0.1,0.2-0.1,0.5-0.1,0.9c0,0.3,0,0.7,0,1.2v0v0v0c0,0.5,0,0.9,0,1.2c0,0.3,0.1,0.6,0.1,0.9c0.1,0.2,0.2,0.4,0.3,0.6
			s0.3,0.3,0.5,0.5c0.2,0.1,0.5,0.2,0.9,0.3c0.2,0,0.4,0.1,0.6,0.1c0.2,0,0.5,0,0.7,0h0c0.2,0,0.5,0,0.7,0s0.4-0.1,0.6-0.1
			c0.4-0.1,0.7-0.2,0.9-0.3c0.2-0.2,0.4-0.3,0.5-0.5s0.2-0.4,0.3-0.6c0.1-0.2,0.1-0.5,0.1-0.9C329.5,45.3,329.5,44.9,329.5,44.4
			L329.5,44.4L329.5,44.4z"/>
		<path class="st4" d="M338.5,48.6l-1.7-2.8c-0.5,0-0.9,0-1.5-0.1s-1.2-0.2-1.9-0.2v3.1h-0.7v-8.3c0.5,0,1-0.1,1.5-0.1
			c0.2,0,0.4,0,0.6,0c0.2,0,0.4,0,0.5,0c0.2,0,0.3,0,0.5,0s0.2,0,0.3,0c0.4,0,0.8,0,1.1,0c0.3,0,0.5,0.1,0.7,0.1
			c0.2,0.1,0.4,0.1,0.5,0.2c0.1,0,0.2,0.1,0.3,0.2c0.1,0.1,0.2,0.2,0.3,0.3s0.2,0.2,0.2,0.4c0.1,0.2,0.1,0.4,0.2,0.6
			s0.1,0.5,0.1,0.8c0,0.2,0,0.5,0,0.7s0,0.4-0.1,0.5c0,0.2-0.1,0.3-0.1,0.5c-0.1,0.2-0.1,0.4-0.2,0.5s-0.2,0.3-0.3,0.4
			c-0.2,0.2-0.4,0.3-0.5,0.4c-0.2,0.1-0.4,0.2-0.7,0.2l1.7,2.8L338.5,48.6L338.5,48.6z M337.8,45c0.2-0.1,0.3-0.1,0.5-0.2
			c0.1-0.1,0.2-0.2,0.3-0.4c0.1-0.2,0.2-0.4,0.2-0.6s0.1-0.6,0.1-0.9c0-0.3,0-0.5,0-0.7s-0.1-0.4-0.1-0.5s-0.1-0.3-0.2-0.3
			c-0.1-0.1-0.2-0.2-0.3-0.2c-0.1-0.1-0.2-0.1-0.4-0.2s-0.3-0.1-0.5-0.1s-0.4,0-0.6,0c-0.2,0-0.4,0-0.6,0s-0.4,0-0.7,0
			c-0.2,0-0.5,0-0.7,0c-0.2,0-0.5,0-0.7,0s-0.4,0-0.5,0v3.9c0.7,0.1,1.4,0.2,1.9,0.3c0.6,0.1,1,0.1,1.4,0.1c0.2,0,0.3,0,0.4,0
			c0.1,0,0.2,0,0.3,0C337.6,45.1,337.7,45.1,337.8,45C337.7,45,337.7,45,337.8,45z"/>
		<path class="st4" d="M347,45.6h-3.3l-1.1,2.9h-0.8l3.3-8.4h0.5l3.2,8.4h-0.8L347,45.6z M346.7,45l-1.4-3.5L344,45H346.7z"/>
	</g>
</g>
</svg>
